<svg xmlns="http://www.w3.org/2000/svg" width="1000" height="1000" id="logo" style=""><g id="icon"><path fill="#35aeff" d="M565.4698634909375 431.43879279475277L476.3698634909376 379.93879279475277L565.4698634909375 328.43879279475277C569.4698634909375 326.13879279475276 570.7698634909376 321.0387927947528 568.4698634909375 317.0387927947528L507.2698634909376 211.13879279475276C504.9698634909376 207.13879279475276 499.8698634909376 205.83879279475275 495.8698634909376 208.13879279475276L406.7698634909376 259.63879279475276L406.7698634909376 156.73879279475275C406.7698634909376 152.13879279475276 403.0698634909376 148.43879279475277 398.4698634909376 148.43879279475277L276.1698634909376 148.43879279475277C271.56986349093756 148.43879279475277 267.8698634909376 152.13879279475276 267.8698634909376 156.73879279475275L267.8698634909376 259.63879279475276L178.76986349093758 208.13879279475276C174.76986349093758 205.83879279475275 169.6698634909376 207.23879279475275 167.36986349093758 211.13879279475276L106.26986349093758 317.13879279475276C103.96986349093758 321.13879279475276 105.36986349093758 326.2387927947527 109.26986349093758 328.5387927947528L198.36986349093758 380.03879279475274L109.26986349093758 431.53879279475274C105.26986349093758 433.83879279475275 103.96986349093758 438.93879279475277 106.26986349093758 442.93879279475277L167.4698634909376 548.8387927947527C169.76986349093758 552.8387927947527 174.86986349093758 554.1387927947528 178.86986349093758 551.8387927947527L186.36986349093758 547.5387927947527L186.36986349093758 454.63879279475276L215.86986349093758 454.63879279475276L215.86986349093758 391.2387927947528L233.9698634909376 373.13879279475276L233.9698634909376 306.5387927947528L253.56986349093756 306.5387927947528L253.56986349093756 284.5387927947528L269.2698634909376 284.5387927947528L269.2698634909376 395.33879279475275L291.2698634909376 395.33879279475275L291.2698634909376 468.2387927947528L315.1698634909376 468.2387927947528L315.1698634909376 428.63879279475276L340.2698634909376 428.63879279475276L340.2698634909376 336.0387927947528L374.1698634909376 307.63879279475276L374.1698634909376 356.7387927947528L400.5698634909376 356.7387927947528L400.5698634909376 481.13879279475276L424.3698634909376 481.13879279475276L424.3698634909376 433.33879279475275L438.7698634909376 433.33879279475275L438.7698634909376 367.53879279475274L459.0698634909376 367.53879279475274L458.8698634909376 402.2387927947528L475.0698634909376 402.2387927947528L475.0698634909376 520.6387927947528L496.7698634909376 520.6387927947528L496.7698634909376 552.0387927947527C500.6698634909376 553.9387927947528 505.3698634909376 552.5387927947527 507.5698634909376 548.7387927947527L568.4698634909375 442.83879279475275C570.7698634909376 438.83879279475275 569.4698634909375 433.7387927947528 565.4698634909375 431.43879279475277Z " transform="matrix(1.5071048968031053,0,0,1.5071049958267746,-8.451747957643146,-28.550010878156996)"/><g transform="matrix(3.0142097936062107,0,0,3.014209991653549,-8.451747957643146,-28.550010878156996)"/></g></svg>